<?xml version="1.0" encoding="UTF-8" standalone="no"?>
<!-- Created with Inkscape (http://www.inkscape.org/) -->

<svg
   width="100mm"
   height="100mm"
   viewBox="0 0 100 100"
   version="1.1"
   id="svg1"
   xml:space="preserve"
   inkscape:version="1.3.2 (091e20e, 2023-11-25, custom)"
   sodipodi:docname="map.svg"
   xmlns:inkscape="http://www.inkscape.org/namespaces/inkscape"
   xmlns:sodipodi="http://sodipodi.sourceforge.net/DTD/sodipodi-0.dtd"
   xmlns="http://www.w3.org/2000/svg"
   xmlns:svg="http://www.w3.org/2000/svg"><sodipodi:namedview
     id="namedview1"
     pagecolor="#505050"
     bordercolor="#eeeeee"
     borderopacity="1"
     inkscape:showpageshadow="0"
     inkscape:pageopacity="0"
     inkscape:pagecheckerboard="0"
     inkscape:deskcolor="#505050"
     inkscape:document-units="mm"
     inkscape:zoom="2.0485264"
     inkscape:cx="85.915416"
     inkscape:cy="182.32618"
     inkscape:window-width="1920"
     inkscape:window-height="1009"
     inkscape:window-x="-8"
     inkscape:window-y="-8"
     inkscape:window-maximized="1"
     inkscape:current-layer="layer1" /><defs
     id="defs1"><inkscape:path-effect
       effect="bspline"
       id="path-effect1"
       is_visible="true"
       lpeversion="1.3"
       weight="33.333333"
       steps="2"
       helper_size="0"
       apply_no_weight="true"
       apply_with_weight="true"
       only_selected="false"
       uniform="false" /></defs><g
     inkscape:label="Layer 1"
     inkscape:groupmode="layer"
     id="layer1"><path
       style="fill:none;stroke-width:8;stroke-linecap:square;stroke-miterlimit:2.5;stroke:#ffffff;stroke-opacity:1;stroke-dasharray:none"
       d="m 88.709936,76.569097 c 0.538158,-6.30721 0.667317,-16.381525 0.753422,-22.645707 0.08611,-6.264183 0.129157,-8.718132 -1.033287,-10.698568 C 87.267626,41.244386 84.899779,39.737574 74.330171,34.37743 63.760564,29.017286 44.989995,19.804208 34.183757,14.594828 23.377519,9.3854485 20.536103,8.1799993 17.586967,8.8903937 14.637832,9.600788 11.581157,12.226946 10.009735,14.788602 8.4383131,17.350259 8.3522095,19.847261 8.2230499,28.22114 8.0938903,36.595018 7.9216832,50.845151 7.8786315,58.874485 c -0.043052,8.029334 0.043052,9.837507 1.3777093,11.279781 1.3346572,1.442273 3.9177632,2.518567 8.9119412,0.882524 4.994179,-1.636044 12.399083,-5.984272 17.931381,-9.041025 5.532299,-3.056754 9.191701,-4.821877 11.92556,-4.197584 2.733859,0.624292 4.542034,3.637917 7.512706,8.825832 2.970672,5.187915 7.103642,12.549768 10.41872,17.113364 3.315077,4.563595 5.812079,6.328717 9.062592,6.565493 3.250514,0.236777 7.254329,-1.054776 9.729863,-2.970643 2.475535,-1.915867 3.422674,-4.45592 3.960832,-10.76313 z"
       id="path1"
       inkscape:path-effect="#path-effect1"
       inkscape:original-d="m 89.118936,80.336201 c 0.129159,-10.074314 0.258316,-20.148629 0.387475,-30.222944 0.04305,-2.45405 0.08611,-4.907999 0.129156,-7.361999 C 87.267626,41.244387 84.899779,39.737575 82.531886,38.230733 63.760564,29.017285 44.989995,19.804208 26.219049,10.590946 23.377519,9.3854483 20.536103,8.179999 17.694629,6.9745256 14.637832,9.6007882 11.581157,12.226946 8.5244201,14.853156 8.438313,17.350259 8.3522094,19.847261 8.2661042,22.344313 8.0938903,36.595018 7.9216834,50.845151 7.7494727,65.095572 c 0.086107,1.808247 0.1722107,3.61642 0.2583159,5.42463 2.5832094,1.076338 5.1663154,2.152631 7.7494724,3.228946 7.4052,-4.348401 14.810104,-8.696629 22.215156,-13.044945 3.659545,-1.765192 7.318947,-3.530314 10.97842,-5.295472 1.808245,3.013742 3.61642,6.027367 5.42463,9.041051 4.133136,7.362145 8.266105,14.723999 12.399156,22.085998 2.497103,1.765192 4.994105,3.530314 7.491158,5.295471 4.003974,-1.291603 8.007789,-2.583156 12.011681,-3.874735 0.947177,-2.540156 1.894316,-5.080209 2.841474,-7.620315 z" /></g></svg>
